<mxfile host="app.diagrams.net" agent="Mozilla/5.0 (Macintosh; Intel Mac OS X 10_15_7) AppleWebKit/537.36 (KHTML, like Gecko) Chrome/132.0.0.0 Safari/537.36" version="26.0.8">
  <diagram name="Page-1" id="tc7oej1_Gg2lu0LBJV0l">
    <mxGraphModel dx="1026" dy="684" grid="0" gridSize="10" guides="1" tooltips="1" connect="1" arrows="1" fold="1" page="1" pageScale="1" pageWidth="850" pageHeight="1100" background="#FFFFFF" math="0" shadow="0">
      <root>
        <mxCell id="0" />
        <mxCell id="1" parent="0" />
        <mxCell id="O6LZ875QG5V2WO-ysIMm-17" style="edgeStyle=orthogonalEdgeStyle;rounded=0;orthogonalLoop=1;jettySize=auto;html=1;exitX=1;exitY=0.5;exitDx=0;exitDy=0;entryX=0.5;entryY=0;entryDx=0;entryDy=0;" edge="1" parent="1" source="O6LZ875QG5V2WO-ysIMm-1" target="O6LZ875QG5V2WO-ysIMm-2">
          <mxGeometry relative="1" as="geometry" />
        </mxCell>
        <mxCell id="O6LZ875QG5V2WO-ysIMm-23" style="edgeStyle=orthogonalEdgeStyle;rounded=0;orthogonalLoop=1;jettySize=auto;html=1;exitX=0;exitY=0.5;exitDx=0;exitDy=0;entryX=0.5;entryY=0;entryDx=0;entryDy=0;" edge="1" parent="1" source="O6LZ875QG5V2WO-ysIMm-1" target="O6LZ875QG5V2WO-ysIMm-5">
          <mxGeometry relative="1" as="geometry" />
        </mxCell>
        <mxCell id="O6LZ875QG5V2WO-ysIMm-1" value="Client" style="rounded=0;whiteSpace=wrap;html=1;fillColor=#f5f5f5;fontColor=#333333;strokeColor=#666666;" vertex="1" parent="1">
          <mxGeometry x="240" y="40" width="120" height="60" as="geometry" />
        </mxCell>
        <mxCell id="O6LZ875QG5V2WO-ysIMm-2" value="Button" style="rounded=0;whiteSpace=wrap;html=1;fillColor=#fff2cc;strokeColor=#d6b656;" vertex="1" parent="1">
          <mxGeometry x="440" y="120" width="120" height="60" as="geometry" />
        </mxCell>
        <mxCell id="O6LZ875QG5V2WO-ysIMm-4" value="TextBox" style="rounded=0;whiteSpace=wrap;html=1;fillColor=#dae8fc;strokeColor=#6c8ebf;" vertex="1" parent="1">
          <mxGeometry x="760" y="120" width="120" height="60" as="geometry" />
        </mxCell>
        <mxCell id="O6LZ875QG5V2WO-ysIMm-5" value="GUI Factory" style="rounded=0;whiteSpace=wrap;html=1;fillColor=#d5e8d4;strokeColor=#82b366;" vertex="1" parent="1">
          <mxGeometry x="80" y="220" width="120" height="100" as="geometry" />
        </mxCell>
        <mxCell id="O6LZ875QG5V2WO-ysIMm-41" style="edgeStyle=orthogonalEdgeStyle;rounded=0;orthogonalLoop=1;jettySize=auto;html=1;exitX=0.5;exitY=1;exitDx=0;exitDy=0;entryX=0.5;entryY=1;entryDx=0;entryDy=0;" edge="1" parent="1" source="O6LZ875QG5V2WO-ysIMm-6" target="O6LZ875QG5V2WO-ysIMm-8">
          <mxGeometry relative="1" as="geometry" />
        </mxCell>
        <mxCell id="O6LZ875QG5V2WO-ysIMm-45" style="edgeStyle=orthogonalEdgeStyle;rounded=0;orthogonalLoop=1;jettySize=auto;html=1;exitX=0.25;exitY=1;exitDx=0;exitDy=0;entryX=0.5;entryY=1;entryDx=0;entryDy=0;" edge="1" parent="1" source="O6LZ875QG5V2WO-ysIMm-6" target="O6LZ875QG5V2WO-ysIMm-9">
          <mxGeometry relative="1" as="geometry">
            <Array as="points">
              <mxPoint x="40" y="510" />
              <mxPoint x="740" y="510" />
            </Array>
          </mxGeometry>
        </mxCell>
        <mxCell id="O6LZ875QG5V2WO-ysIMm-6" value="MAC OS" style="rounded=0;whiteSpace=wrap;html=1;fillColor=#f5f5f5;strokeColor=#666666;gradientColor=#b3b3b3;" vertex="1" parent="1">
          <mxGeometry x="10" y="380" width="120" height="60" as="geometry" />
        </mxCell>
        <mxCell id="O6LZ875QG5V2WO-ysIMm-43" style="edgeStyle=orthogonalEdgeStyle;rounded=0;orthogonalLoop=1;jettySize=auto;html=1;exitX=0.5;exitY=1;exitDx=0;exitDy=0;entryX=0.5;entryY=1;entryDx=0;entryDy=0;" edge="1" parent="1" source="O6LZ875QG5V2WO-ysIMm-7" target="O6LZ875QG5V2WO-ysIMm-10">
          <mxGeometry relative="1" as="geometry">
            <Array as="points">
              <mxPoint x="220" y="490" />
              <mxPoint x="580" y="490" />
            </Array>
          </mxGeometry>
        </mxCell>
        <mxCell id="O6LZ875QG5V2WO-ysIMm-47" style="edgeStyle=orthogonalEdgeStyle;rounded=0;orthogonalLoop=1;jettySize=auto;html=1;exitX=0.25;exitY=1;exitDx=0;exitDy=0;entryX=0.5;entryY=1;entryDx=0;entryDy=0;" edge="1" parent="1" source="O6LZ875QG5V2WO-ysIMm-7" target="O6LZ875QG5V2WO-ysIMm-11">
          <mxGeometry relative="1" as="geometry">
            <Array as="points">
              <mxPoint x="190" y="540" />
              <mxPoint x="900" y="540" />
            </Array>
          </mxGeometry>
        </mxCell>
        <mxCell id="O6LZ875QG5V2WO-ysIMm-7" value="Windows OS" style="rounded=0;whiteSpace=wrap;html=1;fillColor=#f8cecc;gradientColor=#ea6b66;strokeColor=#b85450;" vertex="1" parent="1">
          <mxGeometry x="160" y="380" width="120" height="60" as="geometry" />
        </mxCell>
        <mxCell id="O6LZ875QG5V2WO-ysIMm-8" value="MAC Button&amp;nbsp;" style="rounded=0;whiteSpace=wrap;html=1;fillColor=#f5f5f5;gradientColor=#b3b3b3;strokeColor=#666666;" vertex="1" parent="1">
          <mxGeometry x="360" y="230" width="120" height="60" as="geometry" />
        </mxCell>
        <mxCell id="O6LZ875QG5V2WO-ysIMm-9" value="MAC TextBox&amp;nbsp;" style="rounded=0;whiteSpace=wrap;html=1;fillColor=#f5f5f5;gradientColor=#b3b3b3;strokeColor=#666666;" vertex="1" parent="1">
          <mxGeometry x="680" y="230" width="120" height="60" as="geometry" />
        </mxCell>
        <mxCell id="O6LZ875QG5V2WO-ysIMm-10" value="Windows Button" style="rounded=0;whiteSpace=wrap;html=1;fillColor=#f8cecc;gradientColor=#ea6b66;strokeColor=#b85450;" vertex="1" parent="1">
          <mxGeometry x="520" y="230" width="120" height="60" as="geometry" />
        </mxCell>
        <mxCell id="O6LZ875QG5V2WO-ysIMm-11" value="Windows TextBox" style="rounded=0;whiteSpace=wrap;html=1;fillColor=#f8cecc;gradientColor=#ea6b66;strokeColor=#b85450;" vertex="1" parent="1">
          <mxGeometry x="840" y="230" width="120" height="60" as="geometry" />
        </mxCell>
        <mxCell id="O6LZ875QG5V2WO-ysIMm-21" style="edgeStyle=orthogonalEdgeStyle;rounded=0;orthogonalLoop=1;jettySize=auto;html=1;exitX=1;exitY=0.5;exitDx=0;exitDy=0;" edge="1" parent="1">
          <mxGeometry relative="1" as="geometry">
            <mxPoint x="360" y="50" as="sourcePoint" />
            <mxPoint x="830" y="120" as="targetPoint" />
            <Array as="points">
              <mxPoint x="360" y="51" />
              <mxPoint x="830" y="51" />
            </Array>
          </mxGeometry>
        </mxCell>
        <mxCell id="O6LZ875QG5V2WO-ysIMm-26" style="edgeStyle=orthogonalEdgeStyle;rounded=0;orthogonalLoop=1;jettySize=auto;html=1;exitX=0.5;exitY=0;exitDx=0;exitDy=0;entryX=0.379;entryY=1;entryDx=0;entryDy=0;entryPerimeter=0;" edge="1" parent="1" source="O6LZ875QG5V2WO-ysIMm-6" target="O6LZ875QG5V2WO-ysIMm-5">
          <mxGeometry relative="1" as="geometry" />
        </mxCell>
        <mxCell id="O6LZ875QG5V2WO-ysIMm-31" style="edgeStyle=orthogonalEdgeStyle;rounded=0;orthogonalLoop=1;jettySize=auto;html=1;exitX=0.5;exitY=0;exitDx=0;exitDy=0;entryX=0.688;entryY=1.02;entryDx=0;entryDy=0;entryPerimeter=0;" edge="1" parent="1" source="O6LZ875QG5V2WO-ysIMm-7" target="O6LZ875QG5V2WO-ysIMm-5">
          <mxGeometry relative="1" as="geometry" />
        </mxCell>
        <mxCell id="O6LZ875QG5V2WO-ysIMm-33" style="edgeStyle=orthogonalEdgeStyle;rounded=0;orthogonalLoop=1;jettySize=auto;html=1;exitX=0.5;exitY=0;exitDx=0;exitDy=0;entryX=0.321;entryY=1.05;entryDx=0;entryDy=0;entryPerimeter=0;" edge="1" parent="1" source="O6LZ875QG5V2WO-ysIMm-8" target="O6LZ875QG5V2WO-ysIMm-2">
          <mxGeometry relative="1" as="geometry" />
        </mxCell>
        <mxCell id="O6LZ875QG5V2WO-ysIMm-35" style="edgeStyle=orthogonalEdgeStyle;rounded=0;orthogonalLoop=1;jettySize=auto;html=1;exitX=0.5;exitY=0;exitDx=0;exitDy=0;entryX=0.663;entryY=1.05;entryDx=0;entryDy=0;entryPerimeter=0;" edge="1" parent="1" source="O6LZ875QG5V2WO-ysIMm-10" target="O6LZ875QG5V2WO-ysIMm-2">
          <mxGeometry relative="1" as="geometry" />
        </mxCell>
        <mxCell id="O6LZ875QG5V2WO-ysIMm-37" style="edgeStyle=orthogonalEdgeStyle;rounded=0;orthogonalLoop=1;jettySize=auto;html=1;exitX=0.5;exitY=0;exitDx=0;exitDy=0;entryX=0.346;entryY=1;entryDx=0;entryDy=0;entryPerimeter=0;" edge="1" parent="1" source="O6LZ875QG5V2WO-ysIMm-9" target="O6LZ875QG5V2WO-ysIMm-4">
          <mxGeometry relative="1" as="geometry" />
        </mxCell>
        <mxCell id="O6LZ875QG5V2WO-ysIMm-39" style="edgeStyle=orthogonalEdgeStyle;rounded=0;orthogonalLoop=1;jettySize=auto;html=1;exitX=0.5;exitY=0;exitDx=0;exitDy=0;entryX=0.679;entryY=1;entryDx=0;entryDy=0;entryPerimeter=0;" edge="1" parent="1" source="O6LZ875QG5V2WO-ysIMm-11" target="O6LZ875QG5V2WO-ysIMm-4">
          <mxGeometry relative="1" as="geometry" />
        </mxCell>
        <mxCell id="O6LZ875QG5V2WO-ysIMm-48" value="" style="shape=umlActor;verticalLabelPosition=bottom;verticalAlign=top;html=1;outlineConnect=0;" vertex="1" parent="1">
          <mxGeometry x="285" width="30" height="60" as="geometry" />
        </mxCell>
        <mxCell id="O6LZ875QG5V2WO-ysIMm-52" value="Abstract Factory Design Pattern" style="text;html=1;align=center;verticalAlign=middle;whiteSpace=wrap;rounded=0;fillColor=#fff2cc;strokeColor=#d6b656;gradientColor=#ffd966;" vertex="1" parent="1">
          <mxGeometry x="520" y="8" width="288" height="30" as="geometry" />
        </mxCell>
      </root>
    </mxGraphModel>
  </diagram>
</mxfile>
